<svg width="16" height="16" viewBox="0 0 16 16" fill="none" xmlns="http://www.w3.org/2000/svg">
<path d="M8.00007 5.91718C6.8532 5.91718 5.91726 6.85311 5.91726 7.99999C5.91726 9.14686 6.8532 10.0828 8.00007 10.0828C9.14695 10.0828 10.0829 9.14686 10.0829 7.99999C10.0829 6.85311 9.14695 5.91718 8.00007 5.91718ZM14.2469 7.99999C14.2469 7.13749 14.2548 6.2828 14.2063 5.42186C14.1579 4.42186 13.9298 3.53436 13.1985 2.80311C12.4657 2.0703 11.5798 1.84374 10.5798 1.7953C9.71726 1.74686 8.86257 1.75468 8.00164 1.75468C7.13914 1.75468 6.28445 1.74686 5.42351 1.7953C4.42351 1.84374 3.53601 2.07186 2.80476 2.80311C2.07195 3.53593 1.84539 4.42186 1.79695 5.42186C1.74851 6.28436 1.75632 7.13905 1.75632 7.99999C1.75632 8.86093 1.74851 9.71718 1.79695 10.5781C1.84539 11.5781 2.07351 12.4656 2.80476 13.1969C3.53757 13.9297 4.42351 14.1562 5.42351 14.2047C6.28601 14.2531 7.1407 14.2453 8.00164 14.2453C8.86414 14.2453 9.71882 14.2531 10.5798 14.2047C11.5798 14.1562 12.4673 13.9281 13.1985 13.1969C13.9313 12.4641 14.1579 11.5781 14.2063 10.5781C14.2563 9.71718 14.2469 8.86249 14.2469 7.99999ZM8.00007 11.2047C6.22664 11.2047 4.79539 9.77343 4.79539 7.99999C4.79539 6.22655 6.22664 4.7953 8.00007 4.7953C9.77351 4.7953 11.2048 6.22655 11.2048 7.99999C11.2048 9.77343 9.77351 11.2047 8.00007 11.2047ZM11.336 5.41249C10.9219 5.41249 10.5876 5.07811 10.5876 4.66405C10.5876 4.24999 10.9219 3.91561 11.336 3.91561C11.7501 3.91561 12.0844 4.24999 12.0844 4.66405C12.0846 4.76237 12.0653 4.85975 12.0277 4.95061C11.9902 5.04147 11.935 5.12403 11.8655 5.19355C11.796 5.26307 11.7134 5.3182 11.6226 5.35577C11.5317 5.39334 11.4343 5.41261 11.336 5.41249Z" fill="white"/>
</svg>
