<svg width="16" height="16" viewBox="0 0 16 16" fill="none" xmlns="http://www.w3.org/2000/svg">
<path d="M14.5001 3.97344C14.022 4.17969 13.5017 4.32813 12.9657 4.38594C13.5221 4.05537 13.9388 3.53313 14.1376 2.91719C13.6155 3.2278 13.0435 3.44561 12.447 3.56094C12.1977 3.29442 11.8961 3.0821 11.5612 2.93721C11.2262 2.79231 10.865 2.71795 10.5001 2.71876C9.02353 2.71876 7.83604 3.91563 7.83604 5.38438C7.83604 5.59063 7.86104 5.79688 7.90166 5.99532C5.69072 5.87969 3.71885 4.82344 2.40791 3.20626C2.16904 3.61425 2.04387 4.0788 2.04541 4.55157C2.04541 5.47657 2.51572 6.29219 3.23291 6.77188C2.81026 6.75524 2.39751 6.63907 2.02822 6.43282V6.46563C2.02822 7.76094 2.94385 8.83438 4.16416 9.08126C3.93503 9.14077 3.69933 9.17122 3.4626 9.17188C3.28916 9.17188 3.1251 9.15469 2.95947 9.13126C3.29697 10.1875 4.27979 10.9547 5.4501 10.9797C4.53447 11.6969 3.3876 12.1188 2.14229 12.1188C1.91885 12.1188 1.7126 12.1109 1.49854 12.0859C2.67979 12.8438 4.08135 13.2813 5.59072 13.2813C10.4907 13.2813 13.172 9.22188 13.172 5.69844C13.172 5.58282 13.172 5.46719 13.1642 5.35157C13.6829 4.97188 14.1376 4.50157 14.5001 3.97344Z" fill="white"/>
</svg>
