<svg width="106" height="120" viewBox="0 0 106 120" fill="none" xmlns="http://www.w3.org/2000/svg">
<g clip-path="url(#clip0)">
<path d="M52.9583 119.318C51.8415 119.317 50.7443 119.022 49.7763 118.462L3.88696 91.8361C2.91953 91.2721 2.11661 90.4624 1.55868 89.488C1.00074 88.5136 0.707558 87.4089 0.708253 86.2846V33.0349C0.709127 31.9122 1.003 30.8093 1.56086 29.8367C2.11872 28.864 2.92084 28.0557 3.88696 27.4925L49.7763 0.857137C50.7442 0.297082 51.8415 0.00234985 52.9583 0.00234985C54.075 0.00234985 55.172 0.297082 56.1399 0.857137L102.023 27.4925C102.99 28.0548 103.793 28.863 104.352 29.8358C104.91 30.8085 105.204 31.9118 105.205 33.0349V86.2846C105.204 87.4078 104.91 88.5111 104.352 89.4839C103.793 90.4567 102.99 91.2647 102.023 91.8271L56.1399 118.471C55.1709 119.028 54.0742 119.32 52.9583 119.318ZM40.2008 41.1912C39.9056 41.2603 39.6153 41.3495 39.3322 41.4583L39.189 41.5183C38.9318 41.6314 38.6825 41.7617 38.4428 41.9084L38.3083 42.0044C38.0803 42.15 37.8665 42.3168 37.6696 42.5026C37.0968 43.0469 36.648 43.7091 36.3535 44.4441C36.1137 45.0261 35.983 45.6478 35.9684 46.2776V46.4246C36.1452 48.6009 35.9533 50.7916 35.4011 52.9034C34.9563 54.8359 34.3208 56.7895 33.6492 58.854V58.8721C33.4522 59.4722 33.252 60.0994 33.052 60.7266C32.5701 62.0546 32.1713 63.4116 31.858 64.7896C31.8478 64.8364 31.835 64.8825 31.8194 64.9277C31.7919 64.9967 31.7757 65.0696 31.7717 65.1438L31.4732 66.5152C31.3419 66.9023 31.2195 67.3164 31.1001 67.7155L30.9926 68.1656L30.8852 68.5918C30.6035 69.8559 30.4416 71.1439 30.4016 72.4388V74.2693C30.4751 75.5591 30.6689 76.839 30.9806 78.0923C31.8186 81.3893 33.4798 84.4167 35.807 86.8877C36.6043 87.7293 37.4721 88.5004 38.4009 89.1924H38.4726C38.8514 89.5055 39.2503 89.7931 39.6667 90.0536L39.9323 90.2096C40.3084 90.4407 40.7619 90.7138 41.2604 90.9629L41.4783 91.0589C43.4631 92.0494 45.6009 92.6936 47.8003 92.9644H47.9228C48.3552 93.0565 48.7972 93.0939 49.2388 93.0755H51.5434C51.9524 93.0515 52.358 93.0154 52.7371 92.9644L53.3758 92.8684C53.731 92.8204 54.0955 92.7453 54.4507 92.6763L55.1521 92.5053C55.4506 92.4423 55.7728 92.3463 56.0145 92.2743L56.1399 92.2382C56.316 92.1872 56.4922 92.1242 56.6653 92.0642H56.6831L56.901 91.9892L57.8174 91.6501L58.5906 91.299C58.8712 91.1699 59.1876 91.0229 59.4592 90.8879C59.6383 90.7978 59.7996 90.7048 59.9697 90.6028H59.9876L60.2324 90.4617L60.259 90.4467C60.5247 90.2967 60.7963 90.1466 61.053 89.9786L61.7755 89.4684L62.0739 89.2524L62.5753 88.8862C62.6644 88.8207 62.7502 88.7507 62.8321 88.6763L63.0828 88.4601L63.2409 88.3282C63.4887 88.1211 63.7455 87.905 63.9813 87.677L71.9448 80.1179L73.7776 78.3834C73.8403 78.3204 73.8939 78.2514 73.9536 78.1824L74.0789 78.0323V77.9483C74.9807 76.937 75.4707 75.6212 75.4507 74.2632C75.4308 72.9051 74.9025 71.6045 73.9714 70.6203C73.0883 69.7767 71.9421 69.2666 70.7271 69.1769C71.1129 68.5022 71.3709 67.7615 71.4883 66.9923C71.6226 66.2646 71.5842 65.5154 71.3768 64.8053C71.1694 64.0952 70.7986 63.4443 70.2943 62.9052C69.9153 62.5208 69.4794 62.1978 69.0019 61.9479L68.8317 61.8519C68.3011 61.5986 67.7356 61.4266 67.1542 61.3417C67.6456 60.4933 67.8914 59.5236 67.864 58.5422C67.8366 57.5608 67.537 56.6066 66.999 55.7872C66.8928 55.6256 66.7759 55.4712 66.6496 55.3251C65.9688 54.7125 65.1351 54.2976 64.2378 54.1248L73.8909 44.9543C74.4777 44.4007 74.9333 43.7217 75.2241 42.9674C75.5149 42.2131 75.6334 41.4027 75.571 40.5961C75.5085 39.7896 75.2668 39.0074 74.8634 38.3074C74.46 37.6075 73.9051 37.0076 73.2402 36.552L73.07 36.4559C72.8281 36.2971 72.5735 36.1586 72.3088 36.0418L72.2524 36.0148C72.1475 35.9562 72.0315 35.9204 71.9121 35.9097C71.7185 35.8321 71.5186 35.7709 71.3149 35.7267C71.2373 35.7267 71.1597 35.7267 71.0791 35.7267C70.9985 35.7267 70.921 35.7267 70.8434 35.7267C70.6517 35.6953 70.4584 35.6752 70.2644 35.6667H69.2526C69.0606 35.7086 68.8711 35.7618 68.6853 35.8258C68.5432 35.8544 68.4027 35.8904 68.2644 35.9337C68.0788 36.013 67.8974 36.1022 67.7212 36.2009C67.6615 36.2339 67.5989 36.2639 67.5452 36.2879C67.4737 36.3192 67.4038 36.3542 67.336 36.3929C67.1063 36.5457 66.889 36.7162 66.6856 36.903C66.619 36.9481 66.555 36.9972 66.4943 37.0501L49.839 53.1495L46.4602 56.3544L46.5706 53.5156L46.7375 47.559V46.7217C46.7737 45.2815 46.2424 43.8853 45.2589 42.8375C44.2754 41.7897 42.9196 41.1753 41.4874 41.1282H41.2932C40.9698 41.1353 40.6475 41.1674 40.3291 41.2242L40.2008 41.1912ZM63.6767 30.4092C63.1743 30.4086 62.69 30.5971 62.3187 30.9374L57.9012 35.2556C57.6213 35.5406 57.4309 35.9023 57.3543 36.2954C57.2777 36.6884 57.3183 37.0955 57.4705 37.4657C57.6228 37.8358 57.8802 38.1526 58.2106 38.3765C58.5409 38.6004 58.9293 38.7215 59.3277 38.7246H59.3488C59.8718 38.7264 60.3745 38.5217 60.7487 38.1544L65.1422 33.8242C65.412 33.5364 65.5921 33.1755 65.6603 32.786C65.7285 32.3965 65.6821 31.9955 65.5262 31.6323C65.3704 31.2692 65.1123 30.9599 64.7837 30.7426C64.455 30.5252 64.0701 30.4093 63.6767 30.4092ZM40.7649 30.3192C40.357 30.3187 39.9588 30.4428 39.6226 30.6748C39.2863 30.9068 39.028 31.2359 38.8818 31.6186C38.7356 32.0013 38.7085 32.4197 38.8039 32.8184C38.8992 33.217 39.1127 33.5771 39.416 33.8512L43.8452 38.1453C44.2117 38.5114 44.7077 38.7164 45.2243 38.7155H45.2421C45.5083 38.7123 45.7713 38.656 46.0157 38.5499C46.2601 38.4438 46.4812 38.29 46.6661 38.0974V38.1573C47.0427 37.7772 47.2542 37.2625 47.2542 36.726C47.2542 36.1894 47.0427 35.6748 46.6661 35.2946L42.2125 30.9404C42.0244 30.7454 41.7994 30.5903 41.5508 30.4841C41.3022 30.378 41.035 30.3229 40.7649 30.3222V30.3192ZM52.0029 25.4069C51.4688 25.4077 50.957 25.6213 50.5793 26.001C50.2017 26.3807 49.9891 26.8955 49.9883 27.4325V33.6201C49.9883 34.1573 50.2004 34.6725 50.5782 35.0524C50.9561 35.4323 51.4685 35.6457 52.0029 35.6457C52.5373 35.6457 53.0497 35.4323 53.4276 35.0524C53.8054 34.6725 54.0178 34.1573 54.0178 33.6201V27.4325C54.017 26.8955 53.8045 26.3807 53.4268 26.001C53.0492 25.6213 52.537 25.4077 52.0029 25.4069ZM39.6098 88.8323V88.7482C38.7336 88.1533 37.9054 87.4902 37.1325 86.7647L38.7026 87.0978H38.81C38.898 87.0972 38.9838 87.0718 39.0582 87.0247C39.1325 86.9775 39.1925 86.9102 39.2309 86.8307L40.5233 84.4031L43.7319 85.4714C43.8362 85.5086 43.9501 85.5095 44.0551 85.4741C44.16 85.4388 44.2499 85.3692 44.3108 85.2763L45.8543 82.7766L49.6808 83.1757H49.7194C49.8076 83.1758 49.8944 83.1522 49.9705 83.1073C50.0466 83.0625 50.1093 82.9981 50.1523 82.9207L51.5402 80.493L54.2266 80.0309C54.2895 80.0255 54.349 80.0004 54.3968 79.9589L56.1876 78.8425C56.2519 78.8095 56.3079 78.7619 56.3508 78.7036C56.3938 78.6453 56.4226 78.5779 56.4354 78.5064C56.4477 78.4349 56.4435 78.3616 56.4234 78.2919C56.4032 78.2222 56.3677 78.158 56.3191 78.1043V78.1884C56.2868 78.1317 56.2431 78.0824 56.1909 78.0434C56.1387 78.0045 56.079 77.9768 56.0156 77.9621C55.9523 77.9475 55.8868 77.9462 55.8229 77.9583C55.759 77.9703 55.6981 77.9956 55.6443 78.0323L53.9431 79.0766L51.1193 79.5747C51.0482 79.5862 50.9807 79.6142 50.9222 79.6564C50.8637 79.6986 50.816 79.7539 50.7823 79.8178L49.4538 82.1465L45.6422 81.7444H45.5887C45.5066 81.7445 45.4259 81.7661 45.3547 81.8072C45.2835 81.8482 45.2239 81.9073 45.1824 81.9784L43.6604 84.4061L40.4158 83.3137C40.3038 83.2761 40.182 83.2799 40.0726 83.3244C39.9631 83.369 39.873 83.4515 39.8186 83.5569L38.5145 86.0565L35.8966 85.4893C35.1322 84.5905 34.4529 83.6221 33.8671 82.5966C39.5682 81.8704 53.4685 79.6408 59.4501 74.6264C58.9503 76.6125 57.9276 78.4265 56.4893 79.8778C54.7624 81.7356 52.7535 83.3065 50.5374 84.5321C47.0901 86.4295 43.4143 87.8738 39.6007 88.8293L39.6098 88.8323ZM37.1205 86.7617L35.4371 86.4046C35.1387 86.0841 34.8566 85.7486 34.5922 85.3993C34.675 85.3265 34.7806 85.2851 34.8906 85.2823H34.9802L35.8995 85.4804C36.0935 85.7084 36.2967 85.9365 36.4967 86.1556C36.6967 86.3746 36.8995 86.5576 37.0935 86.7557L37.1205 86.7617ZM51.0151 73.168C48.6498 72.9038 46.4415 71.8467 44.7466 70.1672L55.6564 64.4656C55.8513 65.4847 55.9344 66.5221 55.9041 67.5594C55.9473 68.4342 55.7926 69.3074 55.452 70.1135C55.1113 70.9196 54.5936 71.6376 53.9373 72.2137C53.0848 72.8268 52.0633 73.1573 51.0151 73.1589V73.168ZM32.2522 73.168C31.9406 73.1689 31.6307 73.1223 31.333 73.0299C31.3365 71.7189 31.4734 70.4118 31.7418 69.1289L36.0249 71.3735C35.0031 72.3787 33.674 73.0078 32.2522 73.1589V73.168Z" fill="#8854D0"/>
</g>
<defs>
<clipPath id="clip0">
<rect width="104.748" height="119.315" fill="white" transform="translate(0.708252 0.00234985)"/>
</clipPath>
</defs>
</svg>
