<svg width="198" height="120" viewBox="0 0 198 120" fill="none" xmlns="http://www.w3.org/2000/svg">
<path d="M46.6506 31.1085H83.9403V34.0726H50.0688V56.3793H81.9207V59.343H50.0688V83.8337H84.3287V86.7974H46.6506V31.1085ZM87.2812 31.1085H91.2431L108.8 55.5993L126.746 31.1082L151.155 0L111.053 58.1733L131.718 86.7974H127.6L108.8 60.747L89.9221 86.7974H85.8826L106.703 58.1729L87.2808 31.1085H87.2812ZM133.194 34.0726V31.1082H175.688V34.0722H156.111V86.797H152.693V34.0726H133.194ZM0 31.1082H4.27274L63.1913 119.275L38.8435 86.797L3.57342 35.3203L3.41819 86.7978H0V31.1082ZM175.344 82.9386C174.645 82.9386 174.122 82.398 174.122 81.6983C174.122 80.9994 174.645 80.458 175.344 80.458C176.051 80.458 176.566 80.999 176.566 81.6983C176.566 82.3976 176.051 82.9386 175.344 82.9386ZM178.703 79.6756H180.532C180.557 80.6661 181.28 81.3322 182.344 81.3322C183.533 81.3322 184.207 80.6163 184.207 79.276V70.7846H186.069V79.2841C186.069 81.6983 184.672 83.0888 182.361 83.0888C180.191 83.0888 178.703 81.74 178.703 79.6753V79.6756ZM188.505 79.5675H190.351C190.508 80.7078 191.623 81.4318 193.227 81.4318C194.724 81.4318 195.821 80.6576 195.821 79.5922C195.821 78.6767 195.123 78.1272 193.535 77.7526L191.988 77.3781C189.818 76.8699 188.829 75.8211 188.829 74.0564C188.829 71.9171 190.575 70.4934 193.194 70.4934C195.63 70.4934 197.409 71.9167 197.517 73.9398H195.704C195.53 72.8327 194.565 72.1415 193.169 72.1415C191.697 72.1415 190.717 72.8493 190.717 73.9313C190.717 74.7885 191.348 75.2801 192.911 75.6462L194.233 75.9709C196.694 76.5455 197.708 77.5445 197.708 79.3509C197.708 81.6485 195.929 83.0888 193.086 83.0888C190.425 83.0888 188.638 81.7149 188.505 79.5671V79.5675Z" fill="white"/>
</svg>
